<svg width="12" height="12" viewBox="0 0 12 12" fill="none" xmlns="http://www.w3.org/2000/svg">
<g id="Icon (heroicons-mini) https://heroicons.com/">
<g id="vector">
<path d="M1.19995 2.55C1.19995 1.80441 1.80437 1.2 2.54995 1.2H6.44995C7.19554 1.2 7.79995 1.80441 7.79995 2.55V3.3H5.54995C4.30731 3.3 3.29995 4.30736 3.29995 5.55V7.8H2.54995C1.80437 7.8 1.19995 7.19558 1.19995 6.45V2.55Z" fill="#626262"/>
<path d="M5.54995 4.2C4.80437 4.2 4.19995 4.80441 4.19995 5.55V9.45C4.19995 10.1956 4.80437 10.8 5.54995 10.8H9.44995C10.1955 10.8 10.8 10.1956 10.8 9.45V5.55C10.8 4.80441 10.1955 4.2 9.44995 4.2H5.54995Z" fill="#626262"/>
</g>
</g>
</svg>
